# xmcd CD database file
#
# Track frame offsets:
#	150
#	16895
#	38137
#
# Disc length: 728 seconds
#
# Revision: 0
# Processed by: cddbd v1.5.1PL0 Copyright (c) Steve Scherf et al.
# Submitted via: CDex 1.51
#
DISCID=1802d603
DTITLE=R'OSE - Enjoy the party
DYEAR=2000
DGENRE=JPop
TTITLE0=Enjoy the party
TTITLE1=I sing for you
TTITLE2=Enjoy the party (カラオケ)
EXTD=YEAR: 2000
EXTT0=
EXTT1=
EXTT2=
PLAYORDER=
